<?xml version="1.0" encoding="UTF-8"?>
<svg xmlns="http://www.w3.org/2000/svg" xmlns:xlink="http://www.w3.org/1999/xlink" version="1.1" width="512" height="512" x="0" y="0" viewBox="0 0 510 510" style="enable-background:new 0 0 512 512" xml:space="preserve" fill-rule="evenodd" class="">
  <g>
    <path d="M131.919 115.867c23.705 9.757 40.997 31.905 43.825 58.376a8 8 0 0 1-7.954 8.85H41.728a8 8 0 0 1-7.954-8.855c2.842-26.47 20.14-48.616 43.839-58.373-7.922-7.327-12.894-17.803-12.894-29.401 0-22.058 17.982-40.057 40.04-40.057 22.077 0 40.056 18 40.056 40.057 0 11.598-4.971 22.075-12.896 29.403zm-27.16 10.653c-25.454 0-46.901 17.175-53.387 40.573h106.779c-6.475-23.398-27.925-40.573-53.392-40.573zm0-16c13.259 0 24.056-10.81 24.056-24.056s-10.797-24.057-24.056-24.057c-13.245 0-24.04 10.812-24.04 24.057s10.795 24.056 24.04 24.056zM282.16 76.459c23.705 9.758 40.997 31.905 43.826 58.376a8.002 8.002 0 0 1-7.955 8.85H191.969a8 8 0 0 1-7.954-8.854c2.843-26.471 20.14-48.617 43.839-58.373-7.922-7.327-12.894-17.803-12.894-29.402C214.96 24.999 232.942 7 255 7c22.078 0 40.056 18 40.056 40.056 0 11.599-4.971 22.076-12.896 29.403zM255 87.113c-25.454 0-46.901 17.175-53.387 40.572h106.779c-6.475-23.397-27.924-40.572-53.392-40.572zm0-16c13.259 0 24.056-10.81 24.056-24.057C279.056 33.81 268.259 23 255 23c-13.245 0-24.04 10.811-24.04 24.056 0 13.246 10.795 24.057 24.04 24.057zm177.401 44.754c23.705 9.757 40.997 31.905 43.826 58.376a8 8 0 0 1-7.955 8.85H342.21a8 8 0 0 1-7.954-8.855c2.843-26.47 20.14-48.616 43.839-58.373-7.922-7.327-12.893-17.803-12.893-29.401 0-22.058 17.982-40.057 40.039-40.057 22.078 0 40.057 18 40.057 40.057 0 11.598-4.972 22.075-12.897 29.403zm-27.16 10.653c-25.454 0-46.9 17.175-53.387 40.573h106.779c-6.475-23.398-27.924-40.573-53.392-40.573zm0-16c13.259 0 24.057-10.81 24.057-24.056S418.5 62.407 405.241 62.407c-13.245 0-24.039 10.812-24.039 24.057s10.794 24.056 24.039 24.056zm-22.002 350.868a7.997 7.997 0 0 1-2.587-.659l-30.429-13.479c-14.767 8.667-30.685 15.245-47.263 19.582l-11.947 31.041a8 8 0 0 1-7.466 5.127H226.51a8 8 0 0 1-7.466-5.127l-11.946-31.039c-16.617-4.343-32.5-10.96-47.304-19.591l-30.446 13.486a8 8 0 0 1-8.897-1.658l-40.322-40.322a8 8 0 0 1-1.653-8.907l13.528-30.425c-8.664-14.763-15.244-30.678-19.622-47.252l-31.055-11.951a8 8 0 0 1-5.127-7.467v-42.545a8 8 0 0 1 8-8h88.874c12.428-53.099 60.075-92.635 116.965-92.635s104.537 39.536 116.965 92.635H465.8a8 8 0 0 1 8 8v42.545a8 8 0 0 1-5.127 7.467l-31.043 11.947c-4.342 16.569-10.959 32.445-19.587 47.246l13.486 30.446a7.991 7.991 0 0 1 .662 3.852l27.699 26.882c7.172 6.944 7.374 18.498.373 25.727l-.006.007-22.22 22.889-.007.008c-6.939 7.158-18.477 7.355-25.697.42l-.031-.03-29.063-28.22zM130.457 278.202H52.2v29.052l29.797 11.468a8 8 0 0 1 4.904 5.594c4.281 17.784 11.304 34.802 20.91 50.336a7.997 7.997 0 0 1 .506 7.457l-12.988 29.213 32.556 32.556 29.216-12.942a8.002 8.002 0 0 1 7.42.493c15.59 9.552 32.552 16.637 50.393 20.864a8 8 0 0 1 5.622 4.911L232.004 487h46.05l11.467-29.796a8.001 8.001 0 0 1 5.617-4.91c17.777-4.225 34.786-11.246 50.313-20.847a8 8 0 0 1 5.908-1.014l-.595-.578c-5.653-5.448-6.984-13.751-3.941-20.535l-24.441-23.719c-20.122 15.201-45.179 24.215-72.343 24.215-66.349 0-120.125-53.776-120.125-120.125 0-3.875.184-7.708.543-11.489zm239.164 0c.359 3.781.543 7.614.543 11.489 0 23.174-6.561 44.814-17.925 63.165l25.433 24.695c6.687-3.233 15.024-2.162 20.639 3.274l.006.007 5.011 4.863-1.592-3.596a7.997 7.997 0 0 1 .493-7.419c9.552-15.592 16.637-32.554 20.865-50.342a8 8 0 0 1 4.909-5.616l29.797-11.468v-29.052zm-26.806 87.805a120.84 120.84 0 0 1-8.291 9.083l22.669 21.997 8.555-8.813zm-92.776-180.44c-57.511 0-104.125 46.613-104.125 104.124 0 57.512 46.614 104.125 104.125 104.125s104.125-46.613 104.125-104.125c0-57.511-46.614-104.124-104.125-104.124zm0 10.149c51.902 0 93.975 42.073 93.975 93.975 0 51.903-42.073 93.975-93.975 93.975s-93.975-42.072-93.975-93.975c0-51.902 42.073-93.975 93.975-93.975zm0 16c-43.066 0-77.975 34.91-77.975 77.975 0 43.066 34.909 77.975 77.975 77.975s77.975-34.909 77.975-77.975c0-43.065-34.909-77.975-77.975-77.975zm.011 37.428c28.193 0 53.175 13.891 68.42 35.187l.005.007a9.24 9.24 0 0 1 0 10.706l-.005.007c-15.245 21.297-40.227 35.188-68.42 35.188-28.188 0-53.107-13.854-68.341-35.079-2.465-3.29-2.462-7.664-.014-10.918 15.251-21.246 40.169-35.098 68.355-35.098zm-52.427 40.547c12.495 15.026 31.331 24.603 52.427 24.603 21.083 0 39.948-9.587 52.429-24.6-12.498-15.028-31.356-24.605-52.429-24.605-21.096 0-39.932 9.576-52.427 24.602zm52.427 22.983c-12.693 0-22.997-10.305-22.997-22.998 0-12.651 10.3-22.967 22.997-22.967 12.651 0 22.998 10.316 22.998 22.967 0 12.693-10.351 22.998-22.998 22.998zm0-15.945c3.879 0 7.053-3.16 7.053-7.053 0-3.874-3.179-7.022-7.053-7.022-3.888 0-7.052 3.148-7.052 7.022a7.056 7.056 0 0 0 7.052 7.053zm176.499 181.344 22.221-22.891c.844-.871.855-2.264-.01-3.101l-.006-.006-61.573-59.756c-.865-.836-2.265-.823-3.102.042l-.007.007-22.227 22.897-.016.016a2.16 2.16 0 0 0 .041 3.057l.031.029s61.523 59.739 61.54 59.754c.879.822 2.265.823 3.101-.041z" fill="#fabebe" opacity="1" data-original="#000000" class=""/>
  </g>
</svg>
