<?xml version="1.0" encoding="UTF-8"?>
<svg xmlns="http://www.w3.org/2000/svg" xmlns:xlink="http://www.w3.org/1999/xlink" version="1.1" width="512" height="512" x="0" y="0" viewBox="0 0 510 510" style="enable-background:new 0 0 512 512" xml:space="preserve" fill-rule="evenodd">
  <g>
    <path d="M15.608 251.511C10.314 246.231 7 239.755 7 231.771v-34.43c0-8.393 6.85-15.224 15.243-15.224h43.554v-7.105c0-11.127 7.969-20.486 18.481-22.651C119.15 94.515 182.59 55.798 255 55.798a201.5 201.5 0 0 1 15.089.565C286.146 26.95 317.355 7 353.23 7c52.284 0 94.659 42.375 94.659 94.659 0 21.214-6.976 40.797-18.76 56.579 15.97 28.657 25.073 61.655 25.073 96.762 0 15.052-1.674 29.715-4.845 43.815 7.55-1.421 15.352 2.684 18.268 10.143l.009.022 34.268 88.401.011.027c3.226 8.414-.984 17.888-9.318 21.108l-17.021 6.621a.534.534 0 0 0-.036.014c-8.406 3.223-17.876-.963-21.112-9.361l-.295-.761-8.594 3.585a20.724 20.724 0 0 1-2.577 11.063 21.022 21.022 0 0 1-10.325 9.274 20.882 20.882 0 0 1-2.267 13.649l-.007.013c-3.701 6.717-10.565 10.627-17.715 10.91a20.823 20.823 0 0 1-2.465 7.875l-.015.028c-3.966 7.161-11.566 11.142-19.262 10.888a20.859 20.859 0 0 1-2.363 7.042c-5.59 10.188-18.682 14.054-28.762 8.256l-2.345-1.347c-6.477 6.848-17.029 8.86-25.753 4.218l-.01-.005a21.28 21.28 0 0 1-8.592-8.43c-5.079 1.352-10.656.872-15.624-1.772l-.047-.025a21.444 21.444 0 0 1-7.735-7.089c-5.527 2.012-11.848 1.769-17.448-1.221-7.138-3.801-11.248-11.131-11.35-18.711a21.325 21.325 0 0 1-7.096-2.318 21.276 21.276 0 0 1-7.537-6.714c-.414.002-.828.004-1.242.004-82.05 0-152.581-49.714-183.085-120.639H37.729c-12.172 0-22.121-9.978-22.121-22.122zm37.487-53.394H23v33.654c0 4.284 2.496 7.397 5.683 10.013a.326.326 0 0 1 .022.017c1.111.919 2.314 1.759 3.573 2.559 10.536 6.668 31.962 10.418 55.874 11.923 4.125-8.716 12.996-14.769 23.314-14.769 10.313 0 19.18 6.046 23.308 14.755 23.952-1.52 45.396-5.281 55.882-11.91 1.259-.8 2.461-1.64 3.572-2.558l.022-.017c3.187-2.616 5.683-5.729 5.683-10.013v-33.654h-30.095v15.529c0 9.388-7.675 17.063-17.063 17.063H70.157c-9.387 0-17.062-7.675-17.062-17.063zm33.053 74.058c-21.742-1.496-41.534-5.053-54.54-10.343v49.609c0 3.361 2.753 6.122 6.121 6.122h147.475c3.368 0 6.121-2.761 6.121-6.122v-49.618c-12.979 5.264-32.777 8.828-54.537 10.336-2.272 11.918-12.737 20.914-25.322 20.914-12.579 0-23.04-8.988-25.318-20.898zm-4.351-90.058h59.339v-7.105c0-3.916-3.206-7.122-7.123-7.122H88.919c-3.917 0-7.122 3.206-7.122 7.122zm75.339 0h43.554c8.393 0 15.243 6.831 15.243 15.224v34.43c0 7.984-3.314 14.46-8.608 19.74v59.93c0 12.144-9.949 22.122-22.121 22.122H89.475c29.134 61.211 91.231 103.758 163.28 104.625a21.337 21.337 0 0 1 2.213-6.351l3.912-7.323c-.742-2.209-1.272-4.642-1.732-7.11-.294-1.577-.57-3.166-1.067-4.588-.153-.44-.089-1.003-.533-1.176-1.056-.409-3.734-1.572-7.11-3.065l-.534 1.208c-3.613 8.24-13.299 11.997-21.542 8.335l-16.677-7.354c-8.221-3.605-11.982-13.332-8.377-21.553l.01-.022 38.338-86.721a.189.189 0 0 1 .011-.025c3.662-8.208 13.324-11.93 21.532-8.331l.027.012 16.692 7.394c8.171 3.61 11.974 13.297 8.314 21.535l-1.594 3.606 7.997 3.69c.196.09.387.188.574.294 3.505 1.974 7.054 1.8 10.724 1.216 3.492-.555 7.075-1.526 10.813-2.346 10.375-2.276 21.665-3.513 34.706 3.561 17.425-10.166 31.095-7.485 42.896-3.152 4.279 1.571 8.264 3.407 12.084 4.738 3.587 1.25 6.929 2.271 10.319.525l6.956-3.721-1.58-4.07-.011-.03c-3.223-8.405.962-17.874 9.358-21.111l1.635-.636c4.619-16.079 7.093-33.061 7.093-50.617 0-30.307-7.374-58.905-20.427-84.096-16.908 15.767-39.599 25.414-64.545 25.414-52.284 0-94.659-42.375-94.659-94.659a94.595 94.595 0 0 1 4.744-29.675 186.548 186.548 0 0 0-8.315-.186c-62.887 0-118.414 31.757-151.413 80.092h30.426c12.716 0 23.123 10.407 23.123 23.122zm-3.298 16H69.095v15.529c0 .585.478 1.063 1.062 1.063h82.618c.585 0 1.063-.478 1.063-1.063zm263.715-51.167c9.032-12.805 14.336-28.428 14.336-45.291C431.889 58.212 396.677 23 353.23 23s-78.659 35.212-78.659 78.659c0 16.863 5.305 32.486 14.337 45.291 6.549-17.853 20.314-32.226 37.757-39.578-7.406-7.044-12.039-16.981-12.039-27.951 0-21.239 17.365-38.605 38.604-38.605s38.604 17.366 38.604 38.605c0 10.97-4.632 20.907-12.039 27.951 17.443 7.352 31.208 21.725 37.758 39.578zm-115.956 14.054c13.816 12.03 31.873 19.314 51.633 19.314 19.761 0 37.818-7.284 51.633-19.314-4.482-24.449-25.901-42.979-51.633-42.979-25.731 0-47.15 18.53-51.633 42.979zm146.744 239.104-20.804-53.617-5.287 2.827a2.03 2.03 0 0 1-.08.043c-9.441 4.912-18.827 2.248-29.327-2.041-10.187-4.162-22.138-9.625-38.739 1.739l-.036.025c-3.869 2.651-7.496 5.863-10.779 9.175-7.925 8.008-17.283 15.319-27.755 21.985 11.472 9.125 24.026 2.497 35.838-2.267 13.613-5.49 26.759-9.155 38.123-2.677h.001l45.226 25.793a21.396 21.396 0 0 1 4.084 2.993zm-19.346 17.188a5.2 5.2 0 0 0-2.152-2.277l-.023-.014-45.249-25.805c-3.953-2.254-8.291-1.667-12.824-.45-6.447 1.729-13.187 4.931-20.028 7.483-10.137 3.781-20.475 6.082-30.466 3.281-6.969-1.953-13.915-6.296-20.459-14.711a7.311 7.311 0 0 1-.342-.474c-1.502-2.253-2.02-4.744-1.457-7.373.579-2.702 2.219-4.949 4.53-6.297 12.022-7.023 22.681-14.852 31.391-23.654l.004-.005a112.55 112.55 0 0 1 2.634-2.572c-8.152-1.839-15.353.488-22.042 2.017-9.405 2.151-18.144 3.08-26.85-1.692l-7.492-3.457-23.267 52.649c3.052 1.352 5.458 2.401 6.426 2.776l.012.004c5.256 2.047 8.276 6.088 9.981 11.215 6.237-3.644 14.182-4.086 21.009-.455l.022.012c5.282 2.832 8.907 7.609 10.462 12.989 3.675-.139 7.429.66 10.893 2.5l.02.011a21.393 21.393 0 0 1 9.43 10.118 21.352 21.352 0 0 1 13.663 2.22 21.32 21.32 0 0 1 9.415 10.114 21.399 21.399 0 0 1 13.79 2.285 21.98 21.98 0 0 1 5.934 4.78l23.304 13.214c2.446 1.343 5.538.397 6.901-2.046 1.345-2.477.35-5.574-2.111-6.97a8.046 8.046 0 0 1-.898-.591l-32.508-18.29c-3.848-2.165-5.214-7.047-3.049-10.895s7.047-5.215 10.895-3.049l40.926 23.027.061.033c2.439 1.318 5.514.392 6.863-2.05 1.346-2.46.379-5.545-2.061-6.926l-.015-.009c-10.418-5.823-20.868-11.679-31.221-17.6-3.833-2.192-5.165-7.083-2.973-10.916s7.083-5.165 10.916-2.973c10.313 5.898 20.723 11.731 31.1 17.532 2.432 1.359 5.513.398 6.847-2.033l.018-.032c.814-1.467.764-3.17.074-4.575l-.034-.069zm-63.363 65.226 2.12 1.219c2.384 1.371 5.441.327 6.762-2.082 1.352-2.463.423-5.573-2.017-6.96l-.023-.013a8.076 8.076 0 0 1-.943-.62l-1.338-.759a20.893 20.893 0 0 1-1.474 3.441zm-11.489-19.194c-.49-.651-1.113-1.166-1.841-1.581-2.019-1.031-4.391-.691-6.047.686l-9.929 19.085c.006 1.958 1.036 3.859 2.875 4.843 2.669 1.416 6.011.42 7.431-2.235l1.245-2.329 6.732-12.593.013-.024c.983-1.823.777-4.06-.424-5.774l-.055-.078zm-22.033-8.373c.255-2.186-.794-4.42-2.835-5.511-2.009-1.075-4.413-.755-6.074.614l-11.081 21.47a5.536 5.536 0 0 0 2.897 4.647c2.304 1.201 5.109.597 6.737-1.314zm-23.062-12.362a5.518 5.518 0 0 0-2.855-5.481 5.51 5.51 0 0 0-5.536.214L289.95 455.83l-2.418 4.555a1.07 1.07 0 0 0-.025.047c-1.426 2.641-.415 5.975 2.24 7.387l.012.007c2.678 1.43 5.986.375 7.438-2.272zm-21.729-14.163a5.52 5.52 0 0 0-2.523-6.829c-2.666-1.406-5.999-.408-7.417 2.242l-8.299 15.534-.008.014c-1.427 2.659-.426 5.987 2.232 7.402l.014.007a5.487 5.487 0 0 0 5.482-.19zm65.911-326.405c12.436 0 22.604-10.168 22.604-22.604 0-12.437-10.168-22.605-22.604-22.605s-22.604 10.168-22.604 22.605c0 12.436 10.168 22.604 22.604 22.604zm99.493 212.757-.007-.016c-.078-.174-.267-.281-.445-.213l-17.005 6.615-.036.014c-.176.067-.242.274-.176.45l34.291 88.375.011.03c.067.175.272.241.448.176l16.991-6.609.017-.007c.176-.067.229-.28.163-.457zm-5.624 19.148c-4.132 0-7.497-3.365-7.497-7.455 0-4.131 3.365-7.497 7.497-7.497s7.454 3.366 7.454 7.497c0 4.09-3.322 7.455-7.454 7.455zm-345.412-66.637c0 5.405 4.374 9.78 9.779 9.78s9.78-4.375 9.78-9.78c0-5.385-4.365-9.779-9.78-9.779s-9.779 4.394-9.779 9.779zm152.593 41.666-38.328 86.7c-.064.172-.011.377.158.452l.016.007 16.698 7.364.032.014c.149.066.329.011.395-.138l.009-.021 38.338-86.754.012-.026a.307.307 0 0 0-.159-.404l-.006-.003s-16.674-7.386-16.695-7.394a.38.38 0 0 0-.47.203zm5.441 4.473c4.127.17 7.276 3.659 7.106 7.786-.213 4.128-3.702 7.319-7.83 7.149-4.084-.213-7.276-3.702-7.105-7.829.212-4.128 3.701-7.319 7.829-7.106z" fill="#ab4a4a" opacity="1" data-original="#000000"/>
  </g>
</svg>
