<?xml version="1.0" encoding="UTF-8"?>
<svg xmlns="http://www.w3.org/2000/svg" xmlns:xlink="http://www.w3.org/1999/xlink" version="1.1" width="512" height="512" x="0" y="0" viewBox="0 0 96 96" style="enable-background:new 0 0 512 512" xml:space="preserve" fill-rule="evenodd" class="">
  <g>
    <path d="M25.318 47.691 8.134 77.455A1 1 0 0 0 9.3 78.909l14.486-4.564 3.29 14.828c.09.402.416.708.824.77a.996.996 0 0 0 1.018-.488l17.024-29.486a27.021 27.021 0 0 0 4.09.002l17.05 29.53a.996.996 0 0 0 1.018.488.998.998 0 0 0 .824-.772l3.29-14.826L86.7 78.955a1 1 0 0 0 1.166-1.454L70.668 47.713A26.87 26.87 0 0 0 75 33.047c0-14.902-12.098-27-27-27s-27 12.098-27 27a26.857 26.857 0 0 0 4.318 14.644zm44.078 1.818c-4.13 5.356-10.222 9.122-17.198 10.212l15.33 26.554 2.97-13.382a1 1 0 0 1 1.276-.738l13.074 4.12zm-42.806-.02-15.438 26.74 13.074-4.12a1 1 0 0 1 1.276.738l2.97 13.382 15.306-26.512c-6.974-1.096-13.064-4.866-17.188-10.228zM48 8.047c13.798 0 25 11.202 25 25s-11.202 25-25 25-25-11.202-25-25 11.202-25 25-25zm0 5c-11.038 0-20 8.962-20 20s8.962 20 20 20 20-8.962 20-20-8.962-20-20-20zm0 2c9.934 0 18 8.066 18 18s-8.066 18-18 18-18-8.066-18-18 8.066-18 18-18zm10.094 10.508a.993.993 0 0 0-.604-.472.99.99 0 0 0-.76.094l-12.6 7.15-2.766-4.768a1.002 1.002 0 0 0-1.378-.356l-4.5 2.692a1.002 1.002 0 0 0-.352 1.36l5.97 10.294a1 1 0 0 0 1.352.37l18.032-10.074a1 1 0 0 0 .384-1.364zm-1.25 1.856 1.792 3.178-16.296 9.104-4.98-8.588 2.782-1.664 2.754 4.746a.997.997 0 0 0 1.358.368z" fill="#d65555" opacity="1" data-original="#000000"/>
  </g>
</svg>
